<svg width="485" height="446" viewBox="0 0 485 446" xmlns="http://www.w3.org/2000/svg"><title>Untitled 2</title><g fill-rule="nonzero" fill="#000"><path d="M0 223v223h485V0H0v223zM478.3 4h2.7v439H4V223.6C4 78.2 4.3 4.1 5 3.8c.5-.2 106.6-.2 235.7-.1 129.2.2 236 .3 237.6.3z"/><path d="M63.5 65.3C51.1 68.9 46 78.7 50.9 89.6c2.2 4.9 5.4 7.3 16.4 12.4 10.2 4.7 14.7 9.2 14.7 15 0 4.8-3.6 9.4-8.7 11.1-4 1.3-13.7.7-15.8-1.1-.7-.6-1.9-3.4-2.5-6.3-.7-2.9-1.6-5.9-2.1-6.7-1-2-1.5-.7-2.8 8.5-.8 5.2-.7 7.1.1 7.6 3.5 2.2 20 2.7 26.7.9 7.1-1.9 12.7-8 13.1-14.5.8-11.1-1.8-14.4-17.1-22C60.5 88.2 58 85.7 58 79.3c0-3.8.5-5 3.4-7.9 3.1-3.1 3.9-3.4 9.3-3.4 9.3 0 9.9.4 11.5 6.8.8 3.2 1.8 5.7 2.3 5.6 1.1 0 3.8-13.4 3-14.3-.8-.7-10.4-2-15.5-1.9-2.5 0-6.3.5-8.5 1.1zM183.3 64.8c-1.5.2-2.7 1.9-4.4 6-9.8 24.6-23.3 55-25 56.4-1.2 1-3 1.8-4 1.8s-1.9.4-1.9 1 4.2 1 10.6 1c6.7 0 10.3-.4 9.9-1-.3-.6-1.4-1-2.4-1s-2.4-.7-3.1-1.5c-1.1-1.3-.7-3.2 2.4-11l3.8-9.5H192.5l3.4 9.7c3.2 9.2 3.3 9.7 1.5 11-1 .7-2.4 1.3-3.1 1.3-.7 0-1.3.4-1.3 1s4.7 1 12 1c6.6 0 12-.2 12-.5s-1.8-1.2-3.9-2.1c-4.7-1.9-4.3-1.1-17.1-36.9-5.1-14.3-9.5-26.2-9.9-26.6-.3-.3-1.6-.3-2.8-.1zm3.1 25.5l4.5 12.7H181c-5.5 0-10-.1-10-.3 0-.2 1.8-5 4.1-10.8 2.2-5.7 4.5-11.5 5-12.8.5-1.3 1.1-2.2 1.4-2 .2.3 2.4 6.2 4.9 13.2zM99 66.1c0 .3 1.5 1.2 3.3 2l3.2 1.4v57.9l-3.2 1c-1.8.5-3.3 1.3-3.3 1.7 0 .5 10.4.9 23 .9h23v-5.8c0-3.1.3-6.7.6-8 1.3-4.5-1.6-2.1-4.3 3.8l-2.8 5.9-11.8.1h-11.8l.3-13.8.3-13.7 7.8-.3 7.8-.3 1.6 4.1c.9 2.2 2 4 2.5 4 .4 0 .8-4.3.8-9.5s-.4-9.5-.8-9.5c-.5 0-1.6 1.8-2.5 4l-1.6 4.1-7.8-.3-7.8-.3-.3-13.3-.3-13.3 11.2.3 11.2.3 1.5 5.2c.8 2.9 1.8 5.3 2.2 5.3.7 0 3-10.7 3-13.6 0-.7-8.4-1-22.5-1-12.4.1-22.5.4-22.5.7zM212.7 65.7c-.1.1-.1 3.8.1 8.3.4 9.6 1.6 10 4.6 1.5l2.1-6h17l.3 21.5c.1 11.8-.1 24.8-.5 28.9-.8 7.2-.9 7.5-4 8.5-6.1 2.1-4.5 2.6 8.6 2.6 12.5 0 16.1-1 9.2-2.5-1.6-.3-3.5-1.2-4-1.9-.8-.9-1-10.3-.9-29.2l.3-27.9 7.9-.3c4.4-.2 8.3.1 8.7.5.5.5 1.3 3.3 1.9 6.3 1.7 8.8 2.4 8.4 4.5-2.6.8-4.3 1.5-7.9 1.5-7.9h-28.6c-15.7 0-28.6.1-28.7.2zM272.4 71c.3 3 .5 6.7.6 8.2 0 1.6.5 2.8 1 2.8.6 0 1-.4 1-1 0-.5.9-3.4 2.1-6.5l2-5.5H296l-.2 29.2-.3 29.2-3.7.9c-7.1 1.7-3.8 2.7 8.7 2.7 12.6 0 15.6-.9 8.8-2.6l-3.8-.9-.3-29.3L305 69h8.4c8.3 0 8.4 0 9 2.7 2.9 11.7 3.9 13.1 4.9 6 .3-2.3.9-6 1.2-8.2l.7-4h-57.4l.6 5.5zM335 66.2c0 .4 1.6 1.2 3.5 1.9l3.5 1.3-.2 29-.3 29-3.2 1c-1.8.5-3.3 1.3-3.3 1.7 0 .5 10.3.9 22.9.9 19.9 0 23-.2 23.5-1.6.9-2.3.7-14.4-.2-14.4-.5 0-2.1 2.7-3.7 6s-3.3 6-3.9 6.1h-22.1l-.3-28.2c-.2-29.3-.1-30.5 4-31.1 1.2-.2 2.3-.8 2.5-1.3.2-.7-3.8-1-11.2-1-6.3 0-11.5.3-11.5.7zM389 66.1c0 .3 1.5 1.2 3.3 2l3.2 1.4v58l-3.2 1c-1.8.5-3.3 1.3-3.3 1.7 0 1.2 45.2 1.5 45.6.3.8-2.5.9-15.5.1-15.2-.5.1-2.3 2.9-4 6.2-1.8 3.3-3.5 5.9-3.9 5.7-.5-.1-5.5-.2-11.3-.2h-10.6l.3-13.8.3-13.7h16l1.1 3.5c2.2 6.7 3.4 4.7 3.4-5.4 0-5.3-.4-9.6-.8-9.6-.5 0-1.6 1.8-2.5 4l-1.5 4H405V69h21.9l1.7 5.5c1 3 2.1 5.5 2.4 5.5.7 0 3-10 3-13 0-1.4-2.3-1.6-22.5-1.6-12.4.1-22.5.4-22.5.7zM190.4 181c-10.4 2.2-18.5 8.6-22.7 17.9-1.8 3.8-2.2 6.6-2.2 16.1 0 10.3.3 12.1 2.6 17 5.3 11.4 13 16.1 27.4 16.8 22.4 1 35.3-10.1 37.2-32.3 1.3-16.3-5.9-29.4-18.8-34.1-5.3-1.9-17.8-2.7-23.5-1.4zm14.6 3.5c11.8 1.9 19.2 16.7 17.7 35-1.5 17.8-9.2 26.5-23.2 26.5-7.1 0-11.7-1.9-16.5-6.9-6-6.2-8-12.3-8-25 0-11.6 1.9-18.7 6.2-23.7 3.5-3.9 6.2-5.3 12.3-6.4 4-.7 4.9-.7 11.5.5zM66.7 182.4C59.4 185.1 55 191 55 198c0 9.1 3.9 13.5 18.7 20.7 13.2 6.4 16.5 11.5 12.6 19.7-2.1 4.5-6.5 6.6-13.6 6.6-6.7 0-10.4-1.2-11-3.7-.3-1-1-3.9-1.7-6.6-.7-2.6-1.6-4.7-2-4.7-.8 0-3.5 15.9-2.8 16.5.2.2 3.8.9 8.1 1.6 14.1 2.4 27.4-1.8 31.2-9.7 2.3-4.8 1.7-14.3-1.1-18.2-1.2-1.5-6.7-5.1-12.7-8.2-5.9-3-12-6.7-13.6-8.2-8-7.6-1.8-19.9 9.9-19.7 8.3.2 9.3.9 11 7.2 1.5 6 2.6 7.2 3.5 3.4 1.9-8.6 2.5-12 2-12.5-.3-.3-5.6-.7-11.8-.9-8-.2-12.3.1-15 1.1zM128.5 182.3c-9.4 3.2-16.6 9.1-20.5 17.2-2.2 4.4-2.5 6.3-2.5 16 0 12.8 1.5 17.1 8.7 24.4 6.8 6.9 11.4 8.6 23.8 8.6 8.9 0 11.3-.4 15.8-2.4 2.8-1.3 5.2-2.9 5.2-3.6 0-1.1-1-1-5.2.1-15.7 4.1-28.6-.5-35.3-12.7-2.8-5.1-3-6.1-3-16.4 0-9.6.3-11.6 2.4-15.5 1.3-2.5 3.3-5.6 4.5-6.8 4.9-5.5 15.5-8.3 24.1-6.5 3.9.9 4.1 1.1 5.6 6.8.8 3.2 2 6 2.6 6.2 1.1.4 3.9-14.5 2.8-15.5-1.3-1.3-25-1.2-29 .1zM322.1 183c-16 5.9-22.7 16.5-21.9 34.8.4 11.3 3.7 18.5 11 24.3 6.7 5.3 13.9 7.3 24.2 6.7 8.6-.5 18.6-3.9 18.6-6.3 0-1.1-1-1-5.2.1-16.7 4.4-31.7-1.9-36.9-15.4-2.6-6.6-3.1-18.2-1.1-24.9 1.7-5.8 6.9-12.3 12.2-15.3 3.8-2.1 5.8-2.5 12.8-2.5 9.4 0 9.5.1 11.3 8.3.7 2.9 1.7 5.1 2.3 4.9 1.2-.4 4.2-14.4 3.2-15.4-.3-.3-6.1-.8-12.8-1-10.5-.3-13.1-.1-17.7 1.7zM238.4 188.1c.3 3.4.6 7 .6 8 0 4 2.1 1.6 3.7-4.1l1.6-6H262v57.2l-4 1.5c-2.2.9-4 1.9-4 2.3 0 .4 5.6.7 12.5.7 6.9.1 12.5-.3 12.5-.8 0-.4-1.8-1.4-4-2l-4-1.2V186h8.5c8.4 0 8.5 0 9.1 2.7 1.8 8.1 2.6 10.5 3.3 9.7.7-.8 3.1-12.6 3.1-15.3 0-.8-7.9-1.1-28.6-1.1h-28.7l.7 6.1zM363 182.9c0 .5 1.4 1.2 3 1.6 1.9.4 3.2 1.4 3.5 2.8.3 1.2.4 14.3.3 29.2l-.3 27-3.2 1.4c-1.8.8-3.3 1.7-3.3 2.1 0 .4 5 .6 11 .6 11.1 0 13.5-.8 8-2.7l-3-1.1V215l17.3.2 17.2.3v28l-3.2 1.4c-1.8.8-3.3 1.8-3.3 2.2 0 .8 21.6.6 22.5-.3.3-.3-1-1.1-2.9-1.8l-3.5-1.1-.3-27.2c-.2-15-.2-28.2 0-29.4.2-1.5 1.3-2.4 3.2-2.8 6.7-1.5 3.6-2.5-7.4-2.5-6.4 0-11.6.2-11.6.6 0 .3 1.4 1 3 1.6 3.8 1.3 4.2 2.8 3.8 15.8l-.3 10.5-17.2.3-17.3.2v-25.8l3-.7c6.2-1.4 2.6-2.5-8-2.5-6 0-11 .4-11 .9zM59.7 298.3c-9 3-13.4 9.6-12.5 18.8.7 7.4 4 10.9 15.5 16.4 15 7.3 18.9 12.1 16.3 20-1.7 5.3-6 7.8-13.4 7.9-10.4.2-11.1-.3-13.1-8.5-1-4.2-2.1-6.7-2.6-6.2-.9.9-2.9 10.9-2.9 14.5 0 4.3 23.8 5.1 31.7 1 6.6-3.4 8.8-7.4 8.8-15.9 0-6.8-.2-7.4-3.4-10.7-2-2-7.9-5.7-13.6-8.5-14-6.7-17.7-12-13.8-19.9 2.4-4.8 6.3-6.7 13.7-6.6 7.1.2 9 1.9 10 8.9.4 2.5 1.1 4.5 1.6 4.5s1.4-2.6 2-5.8c.6-3.1 1.4-6.4 1.6-7.4.3-.9 0-1.9-.6-2.3-2.1-1.3-21.4-1.4-25.3-.2zM118.1 298.6c-14.8 5.2-21.9 17.3-20.9 35.8.8 15.3 7.3 25.2 19.2 29.3 6.5 2.3 19.1 2.3 26.7 0 27.3-8.2 29.6-54.8 3.2-64.7-6.7-2.5-21.5-2.7-28.2-.4zm25.1 5c8.5 6 11.2 12.7 11.2 28.4.1 13.6-1.8 19.4-8.1 24.9-3.2 2.9-5.7 4.2-9 4.7-12.6 1.9-22.2-2.4-26.6-11.8-3.1-6.6-3.8-10.8-3.8-20.9 0-10.4 2.5-18.3 7.1-22.9 4.6-4.6 8.8-5.9 17.7-5.7 6.2.2 7.8.7 11.5 3.3zM201.3 298c-9.5 1.9-18.5 8.7-23.1 17.5-2.4 4.5-2.7 6.1-2.7 16 0 9.4.3 11.7 2.3 16 3.1 6.8 8.3 11.8 15.6 15.1 5.3 2.4 7.4 2.8 15.2 2.8 7.6-.1 9.9-.5 14.7-2.7 6.3-2.9 7.8-5.4 2.5-4-1.8.4-7.8.8-13.3.8-9.1 0-10.4-.2-14-2.6-5.5-3.6-9.1-7.7-11-12.3-6.9-16.4-1.4-35.7 11.9-41.7 4.5-2 16.9-2.6 19.6-.9.8.5 2.2 3.3 3 6.1.9 2.9 2 5.4 2.6 5.6 1 .3 3.9-13.6 3-14.5-2-1.9-18.5-2.7-26.3-1.2zM238 298.9c0 .5 1.6 1.5 3.5 2.1l3.5 1.2-.2 29.1-.3 29.1-3.2 1c-6.1 1.7-3.3 2.6 8.2 2.6s14.3-.9 8.3-2.6l-3.3-1-.3-29.1-.2-29.1 3.5-1.2c6.2-2.1 3.8-3-8-3-6.4 0-11.5.4-11.5.9zM271 298.9c0 .5 1.6 1.5 3.5 2.1l3.5 1.2-.2 29.1-.3 29.1-3.2 1c-1.8.5-3.3 1.3-3.3 1.7 0 .5 10.4.9 23 .9h23v-6.4c0-3.5.3-7.1.6-8 .4-1 .1-1.6-.7-1.6-.8.1-2.6 2.8-4.1 6l-2.7 6H287v-28.1l8.2.3 8.1.3 1.2 3.4c2.3 6.8 3.5 4.9 3.5-5.4 0-10.2-1.2-12.1-3.4-5.6l-1.1 3.3-8.2.5-8.3.5V302h11c8 0 11.2.3 11.4 1.2.2.7.9 3.2 1.5 5.5.7 2.4 1.5 4.3 2 4.3.7 0 3.1-10.8 3.1-13.9 0-.8-6.4-1.1-22.5-1.1-13.1 0-22.5.4-22.5.9zM324.1 304.2c.1 3.5.4 7.4.9 8.8.8 2.7.7 2.9 3.7-5.5l1.9-5h16.9l.3 27.9c.2 19.4-.1 28.3-.9 29.2-.6.7-2.6 1.6-4.5 2-7.2 1.3-2.9 2.4 9.6 2.4 12.9 0 16.4-1 9.3-2.7l-3.8-.9-.3-29.2-.2-29.3 8.2.3 8.3.3 1.5 5.7c2.4 9 2.9 8.7 4.9-2.6.6-3.3 1.1-6.3 1.1-6.8 0-.4-12.8-.8-28.5-.8H324l.1 6.2zM383 298.8c0 .4 1.6 1.4 3.5 2.1 3.9 1.4 4.4 2 15.9 21.9l7.7 13.4-.3 12.1-.3 12.2-3.7.9c-6.9 1.7-3.9 2.6 8.8 2.6 12.6 0 14.7-.8 7.9-3l-3.5-1.2v-12.3c0-13.8-1-11 11.1-32.5 6.5-11.5 7.7-13 11-14.2 5.4-1.9 3-2.8-7.1-2.8-9.6 0-13.1 1.2-7.5 2.6 5 1.3 4.9 2.5-2.1 15.8-3.6 6.9-6.9 12.8-7.3 13-.7.5-13.5-21-15.3-25.5-.5-1.4.1-2.1 2.7-3.1 1.9-.6 3.5-1.6 3.5-2 0-.4-5.6-.8-12.5-.8s-12.5.4-12.5.8z"/><circle cx="243" cy="397" r="7"/></g></svg>